# xmcd
# 
# Track frame offsets:
#   150
#   17444
#   36013
#   52557
#   67075
#   84177
#   103820
#   120173
#   139302
#   159296
#   175429
#   192605
#   208285
#   222239
#   240467
# 
# Disc length: 3398 seconds
# 
# Revision: 2
# Processed by: cddbd v1.5.1PL2 Copyright (c) Steve Scherf et al.
# Submitted via: Synapstar 1.0 
# 
DISCID=c90d440f
DTITLE=Various Artist - Mm6379
DYEAR=1900
DGENRE=Country
TTITLE0=Kenny Chesney - Big Star
TTITLE1=Faith Hill - When The Lights Go Down
TTITLE2=Diamond Rio - I Believe
TTITLE3=George Strait - She'll Leave You With A Smile (2002
TTITLE4=Chris Cagle - What A Beautiful Day
TTITLE5=Keith Urban - Raining On Sunday
TTITLE6=Jessica Andrews - There's More To You Than Me
TTITLE7=John Michael Montgomery - Til Nothing Comes Between Us
TTITLE8=Tebey - We Shook Hands (Man To Man)
TTITLE9=Alan Jackson - That'd Be Alright
TTITLE10=Aaron And Thea Tippin - Love Like There's No Tomorrow
TTITLE11=Willie Nelson And Toby Keith - Beer For My Horses
TTITLE12=Vince Gill - Next Big Thing
TTITLE13=Montgomery Gentry - Speed
TTITLE14=Shania Twain - Up
EXTD=MediaType: Karaoke CD+G Producer: Music Maestro
EXTT0=
EXTT1=
EXTT2=
EXTT3=
EXTT4=
EXTT5=
EXTT6=
EXTT7=
EXTT8=
EXTT9=
EXTT10=
EXTT11=
EXTT12=
EXTT13=
EXTT14=
PLAYORDER=
